<svg xmlns="http://www.w3.org/2000/svg" viewBox="0 0 33 29" width="33" height="29">
	<defs>
		<clipPath clipPathUnits="userSpaceOnUse" id="cp1">
			<path d="M-664 -714L86 -714L86 620L-664 620Z" />
		</clipPath>
	</defs>
	<style>
		tspan { white-space:pre }
		.shp0 { fill: #e61c23 } 
	</style>
	<g id="List View" clip-path="url(#cp1)">
		<g id="Doctor 2">
			<g id="Icons">
				<path id="Favourite Icon" class="shp0" d="M24.5 1C22.76 1 21.17 1.54 19.77 2.62C18.42 3.65 17.53 4.97 17 5.92C16.47 4.97 15.58 3.65 14.23 2.62C12.83 1.54 11.24 1 9.5 1C4.65 1 1 4.93 1 10.14C1 15.77 5.56 19.62 12.46 25.45C13.63 26.44 14.96 27.56 16.34 28.75C16.52 28.91 16.76 29 17 29C17.24 29 17.47 28.91 17.66 28.75C19.04 27.56 20.37 26.44 21.54 25.45C28.44 19.62 33 15.77 33 10.14C33 4.93 29.34 1 24.5 1Z" />
			</g>
		</g>
	</g>
</svg>