<svg xmlns="http://www.w3.org/2000/svg" viewBox="0 0 47 41" width="47" height="41">
	<defs>
		<clipPath clipPathUnits="userSpaceOnUse" id="cp1">
			<path d="M-645 -299L105 -299L105 1035L-645 1035Z" />
		</clipPath>
	</defs>
	<style>
		tspan { white-space:pre }
		.shp0 { fill: #959595 } 
	</style>
	<g id="Favourites" clip-path="url(#cp1)">
		<g id="Specialist">
			<g id="Icon 6">
				<path id="Icon" class="shp0" d="M33.59 23.35C32.58 23.35 31.76 24.16 31.76 25.16C31.76 26.16 32.58 26.97 33.59 26.97C34.6 26.97 35.42 26.16 35.42 25.16C35.42 24.16 34.6 23.35 33.59 23.35ZM14.41 23.35C13.4 23.35 12.58 24.16 12.58 25.16C12.58 26.16 13.4 26.97 14.41 26.97C15.42 26.97 16.23 26.16 16.23 25.16C16.23 24.16 15.42 23.35 14.41 23.35ZM1 24.39C1 21.78 2.92 19.6 5.43 19.15L5.43 18.36C5.43 8.24 13.76 0 24 0C34.24 0 42.56 8.24 42.56 18.36L42.56 19.15C45.08 19.6 47 21.78 47 24.39C47 27.03 45.05 29.23 42.5 29.65C42.14 33.69 40.27 36.68 36.92 38.54C33.94 40.2 29.71 41 24 41C18.28 41 14.06 40.2 11.08 38.54C7.73 36.68 5.86 33.69 5.5 29.65C2.95 29.23 1 27.03 1 24.39ZM45.1 24.39C45.1 22.82 44.02 21.49 42.56 21.08L42.56 27.71C44.02 27.3 45.1 25.97 45.1 24.39ZM7.34 28.17C7.34 32.3 8.87 35.16 12.01 36.9C14.7 38.39 18.62 39.12 24 39.12C29.38 39.12 33.3 38.39 35.99 36.9C39.13 35.16 40.66 32.3 40.66 28.17L40.66 18.36C40.66 10.92 35.65 4.61 28.79 2.58C23.56 2.64 20.77 6.37 20.77 9.08C20.77 11.15 22.48 12.83 24.57 12.83C26.14 12.83 27.42 11.57 27.42 10.01C27.42 8.88 26.48 7.95 25.33 7.95C24.8 7.95 24.38 7.53 24.38 7.01C24.38 6.49 24.8 6.07 25.33 6.07C27.53 6.07 29.32 7.84 29.32 10.01C29.32 12.6 27.19 14.71 24.57 14.71C21.43 14.71 18.87 12.18 18.87 9.08C18.87 7.12 19.87 5.02 21.52 3.46C22.19 2.83 22.95 2.3 23.77 1.88C14.69 2.01 7.34 9.35 7.34 18.36L7.34 28.17L7.34 28.17ZM5.43 27.71L5.43 21.08C3.97 21.49 2.9 22.82 2.9 24.39C2.9 25.97 3.97 27.3 5.43 27.71ZM20.32 27.75C22.35 29.76 25.65 29.76 27.68 27.75C28.05 27.38 28.65 27.38 29.02 27.75C29.39 28.12 29.39 28.71 29.02 29.08C27.64 30.45 25.82 31.13 24 31.13C22.18 31.13 20.36 30.45 18.98 29.08C18.61 28.71 18.61 28.12 18.98 27.75C19.35 27.38 19.95 27.38 20.32 27.75Z" />
			</g>
		</g>
	</g>
</svg>