<svg xmlns="http://www.w3.org/2000/svg" viewBox="0 0 31 31" width="31" height="31">
	<defs>
		<clipPath clipPathUnits="userSpaceOnUse" id="cp1">
			<path d="M-20 -65L730 -65L730 1269L-20 1269Z" />
		</clipPath>
	</defs>
	<style>
		tspan { white-space:pre }
		.shp0 { fill: #ffffff } 
	</style>
	<g id="Health camp" clip-path="url(#cp1)">
		<g id="Top Bar">
			<g id="Icons">
				<path id="Back Icon" class="shp0" d="M30.14 16.84L1.86 16.84C1.38 16.84 1 16.46 1 15.99C1 15.51 1.38 15.13 1.86 15.13L30.14 15.13C30.61 15.13 31 15.51 31 15.99C31 16.46 30.61 16.84 30.14 16.84ZM16.47 31C16.25 31 16.04 30.92 15.87 30.76L1.26 16.6C1.09 16.44 1 16.22 1 15.99C1 15.75 1.09 15.53 1.26 15.37L15.87 1.21C16.21 0.89 16.76 0.89 17.09 1.23C17.41 1.58 17.4 2.12 17.06 2.45L3.09 15.99L17.06 29.52C17.4 29.85 17.41 30.4 17.09 30.74C16.92 30.91 16.69 31 16.47 31Z" />
			</g>
		</g>
	</g>
</svg>