<svg xmlns="http://www.w3.org/2000/svg" viewBox="0 0 26 27" width="26" height="27">
	<defs>
		<clipPath clipPathUnits="userSpaceOnUse" id="cp1">
			<path d="M-65 -676L685 -676L685 658L-65 658Z" />
		</clipPath>
	</defs>
	<style>
		tspan { white-space:pre }
		.shp0 { fill: #ff7b7b } 
	</style>
	<g id="Healthcamp details" clip-path="url(#cp1)">
		<g id="Date">
			<g id="Date Icon">
				<path id="Forma" class="shp0" d="M23.33 3.23C23.28 3.23 23.23 3.23 23.17 3.23L21.15 3.23L21.15 1.5C21.15 0.81 20.49 0.4 19.8 0.4L17.93 0.4C17.24 0.4 16.74 0.81 16.74 1.5L16.74 3.23L9.16 3.23L9.16 1.5C9.16 0.81 8.66 0.4 7.96 0.4L6.1 0.4C5.41 0.4 4.74 0.81 4.74 1.5L4.74 3.23L2.73 3.23C1.44 3.19 0.36 4.2 0.33 5.49C0.32 5.54 0.33 5.6 0.33 5.65L0.33 23.83C0.33 25.21 1.34 26.5 2.73 26.5L23.17 26.5C24.56 26.5 25.57 25.21 25.57 23.83L25.57 5.65C25.62 4.37 24.62 3.28 23.33 3.23ZM17.93 1.65L19.89 1.65L19.89 5.11L17.93 5.11L17.93 1.65ZM6.1 1.65L7.9 1.65L7.9 5.11L6.1 5.11L6.1 1.65ZM24.31 23.83C24.31 24.52 23.87 25.24 23.17 25.24L2.73 25.24C2.03 25.24 1.59 24.52 1.59 23.83L1.59 10.46L24.31 10.46L24.31 23.83L24.31 23.83ZM24.31 5.65L24.31 9.2L1.59 9.2L1.59 5.65C1.54 5.06 1.97 4.54 2.56 4.49C2.62 4.48 2.67 4.48 2.73 4.49L4.74 4.49L4.74 5.18C4.74 5.87 5.41 6.37 6.1 6.37L7.96 6.37C8.61 6.39 9.15 5.88 9.16 5.24C9.16 5.22 9.16 5.2 9.16 5.18L9.16 4.49L16.74 4.49L16.74 5.18C16.72 5.82 17.23 6.35 17.87 6.37C17.89 6.37 17.91 6.37 17.93 6.37L19.8 6.37C20.49 6.37 21.15 5.87 21.15 5.18L21.15 4.49L23.17 4.49C23.76 4.45 24.27 4.9 24.31 5.49C24.31 5.54 24.31 5.6 24.31 5.65ZM9.45 19.05L8.88 22.19C8.86 22.33 8.88 22.47 8.94 22.59C9.1 22.9 9.49 23.01 9.79 22.85L12.63 21.38L15.47 22.85L15.76 22.92C15.89 22.92 16.03 22.87 16.14 22.79C16.33 22.65 16.42 22.42 16.39 22.19L15.82 19.05L18.12 16.85C18.29 16.67 18.35 16.42 18.28 16.19C18.2 15.97 18.01 15.82 17.78 15.78L14.62 15.31L13.2 12.44C13.14 12.32 13.04 12.21 12.91 12.15C12.6 12 12.22 12.13 12.07 12.44L10.65 15.31L7.49 15.78C7.26 15.82 7.07 15.97 6.98 16.19C6.92 16.42 6.98 16.67 7.14 16.85L9.45 19.05ZM11.18 16.5C11.38 16.47 11.55 16.34 11.62 16.15L12.63 14.14L13.64 16.15C13.72 16.34 13.89 16.47 14.09 16.5L16.33 16.82L14.72 18.36C14.57 18.5 14.5 18.71 14.53 18.92L14.91 21.16L12.92 20.09L12.63 20.02L12.35 20.09L10.36 21.16L10.74 18.92C10.77 18.71 10.7 18.5 10.55 18.36L8.94 16.82L11.18 16.5Z" />
			</g>
		</g>
	</g>
</svg>