<svg xmlns="http://www.w3.org/2000/svg" viewBox="0 0 51 51" width="51" height="51">
	<defs>
		<clipPath clipPathUnits="userSpaceOnUse" id="cp1">
			<path d="M-391 -298L359 -298L359 1036L-391 1036Z" />
		</clipPath>
	</defs>
	<style>
		tspan { white-space:pre }
		.shp0 { fill: #959595 } 
	</style>
	<g id="Favourites" clip-path="url(#cp1)">
		<g id="Specialist">
			<g id="Icon 4">
				<path id="Icon" class="shp0" d="M50.98 19.45C50.98 16.08 49.23 12.99 46.41 11.16C45.59 6.75 41.61 3.4 36.83 3.4C36.69 3.4 36.55 3.4 36.41 3.4C34.58 1.27 31.88 0.01 28.97 0.01C26.88 0.01 24.87 0.67 23.2 1.87C22.29 1.63 21.35 1.51 20.41 1.51C16.59 1.51 13.07 3.48 11.12 6.58C5.45 7.1 0.99 11.74 0.99 17.38C0.99 20.59 2.47 23.62 4.99 25.68C6.47 29.11 9.88 31.36 13.77 31.36C14.27 31.36 14.78 31.31 15.28 31.23C16.56 32.09 18.07 32.56 19.64 32.56C20 32.56 20.37 32.53 20.73 32.48C22 34.91 24.28 37.11 26.5 39.26C28.57 41.26 30.7 43.33 31.46 45.08L33.57 50.01L36.59 45.54C38.89 42.15 38.51 38.53 37.31 35.63C37.41 35.59 37.5 35.55 37.59 35.5C38.28 35.69 38.99 35.78 39.7 35.78C44.16 35.78 47.78 32.27 47.78 27.94C47.78 27.54 47.75 27.13 47.68 26.73C49.76 24.87 50.98 22.24 50.98 19.45ZM44.27 25.66C44.64 26.35 44.86 27.12 44.86 27.95C44.86 30.71 42.55 32.95 39.7 32.95C38.81 32.95 37.99 32.72 37.27 32.33C36.37 33.07 35.23 33.52 33.96 33.52C33.44 33.52 32.94 33.43 32.46 33.28C32.46 33.28 37.58 38.91 34.15 43.99C32.34 39.77 25.89 35.66 23.52 31.53C24.52 30.91 25.39 30.08 26.27 29.21C29.09 26.41 32 23.51 41.25 26.57L42.19 23.89C31.2 20.25 27.14 24.28 24.18 27.23C23.57 27.83 23.01 28.37 22.46 28.8C21.66 29.37 20.7 29.72 19.64 29.72C18.19 29.72 16.91 29.09 16.03 28.12C15.32 28.37 14.57 28.53 13.77 28.53C10.88 28.53 8.46 26.71 7.55 24.2L7.57 24.2C7.14 22.14 7.71 20.44 9.22 19.28C11.49 17.53 15.23 17.42 18.75 18.98L19.97 16.4C15.46 14.4 10.52 14.66 7.4 17.06C6.08 18.08 5.2 19.43 4.79 20.95C4.24 19.88 3.91 18.67 3.91 17.38C3.91 12.95 7.61 9.37 12.17 9.37C12.43 9.37 12.67 9.42 12.92 9.44C14.04 6.47 16.96 4.34 20.41 4.34C21.65 4.34 22.81 4.64 23.86 5.12C25.11 3.74 26.92 2.84 28.97 2.84C30.58 2.84 32.04 3.4 33.21 4.31C31.82 5.1 30.77 6.14 30.13 7.47C30.08 7.57 30.06 7.67 30.02 7.77L30.01 7.77C29.25 9.16 27.69 10.3 26.12 10.6C25.35 10.75 24.24 10.76 23.27 9.99L21.41 12.17C22.51 13.05 23.86 13.51 25.32 13.51C25.76 13.51 26.23 13.47 26.69 13.38C27.69 13.19 28.64 12.8 29.52 12.26C29.72 13.68 30.17 14.95 30.55 15.82L33.24 14.72C32.75 13.62 31.74 10.82 32.78 8.66C33.24 7.7 34.08 6.97 35.28 6.43C35.78 6.31 36.29 6.23 36.83 6.23C40.59 6.23 43.64 9.19 43.64 12.84C43.64 12.86 43.64 12.88 43.64 12.91C46.24 14.01 48.06 16.52 48.06 19.45C48.06 22.13 46.52 24.44 44.27 25.66Z" />
			</g>
		</g>
	</g>
</svg>