<svg xmlns="http://www.w3.org/2000/svg" viewBox="0 0 29 29" width="29" height="29">
	<defs>
		<clipPath clipPathUnits="userSpaceOnUse" id="cp1">
			<path d="M-25 -67L725 -67L725 1267L-25 1267Z" />
		</clipPath>
	</defs>
	<style>
		tspan { white-space:pre }
		.shp0 { fill: #ffffff } 
	</style>
	<g id="Filter Screen" clip-path="url(#cp1)">
		<g id="Top bar">
			<g id="Icon">
				<path id="Close Icon" class="shp0" d="M17.47 14.49L28.47 3.87C29.16 3.21 29.16 2.14 28.47 1.48C27.79 0.82 26.68 0.82 26 1.48L14.99 12.1L3.98 1.48C3.3 0.82 2.19 0.82 1.51 1.48C0.82 2.14 0.82 3.21 1.51 3.87L12.52 14.49L1.51 25.12C0.82 25.78 0.82 26.85 1.51 27.51C1.85 27.84 2.3 28 2.75 28C3.19 28 3.64 27.84 3.98 27.51L14.99 16.88L26 27.51C26.34 27.84 26.79 28 27.24 28C27.68 28 28.13 27.84 28.47 27.51C29.16 26.85 29.16 25.78 28.47 25.12L17.47 14.49Z" />
			</g>
		</g>
	</g>
</svg>