<svg xmlns="http://www.w3.org/2000/svg" viewBox="0 0 187 187" width="187" height="187">
	<defs>
		<clipPath clipPathUnits="userSpaceOnUse" id="cp1">
			<path d="M-281 -433L469 -433L469 901L-281 901Z" />
		</clipPath>
	</defs>
	<style>
		tspan { white-space:pre }
		.shp0 { fill: #5ad05a } 
	</style>
	<g id="Confirmation Screen" clip-path="url(#cp1)">
		<g id="Icon">
			<path id="Confirmation Icon" class="shp0" d="M94 1C42.59 1 1 42.6 1 94C1 145.4 42.6 187 94 187C145.4 187 187 145.4 187 94C187 42.59 145.4 1 94 1ZM94 174.6C49.56 174.6 13.4 138.44 13.4 94C13.4 49.56 49.56 13.4 94 13.4C138.44 13.4 174.6 49.56 174.6 94C174.6 138.44 138.44 174.6 94 174.6ZM143.23 59.83C140.81 57.4 136.88 57.4 134.46 59.83L79.26 115.02L53.54 89.29C51.12 86.87 47.19 86.87 44.77 89.29C42.35 91.72 42.35 95.64 44.77 98.06L74.88 128.17C77.3 130.59 81.23 130.59 83.65 128.17L143.23 68.59C145.65 66.17 145.65 62.25 143.23 59.83Z" />
		</g>
	</g>
</svg>