<svg xmlns="http://www.w3.org/2000/svg" viewBox="0 0 48 48" width="48" height="48">
	<defs>
		<clipPath clipPathUnits="userSpaceOnUse" id="cp1">
			<path d="M-207 -452L543 -452L543 882L-207 882Z" />
		</clipPath>
	</defs>
	<style>
		tspan { white-space:pre }
		.shp0 { fill-opacity: 0.361;fill: #fd3f45 } 
		.shp1 { fill: #fd3f45 } 
		.shp2 { fill: #ffffff } 
	</style>
	<g id="Map View " clip-path="url(#cp1)">
		<g id="Map Icons">
			<g id="Hospital Icon 7">
				<path id="Circle" class="shp0" d="M24.5 1C37.48 1 48 11.52 48 24.5C48 37.48 37.48 48 24.5 48C11.52 48 1 37.48 1 24.5C1 11.52 11.52 1 24.5 1Z" />
				<path id="Circle" class="shp1" d="M24.5 6.78C34.29 6.78 42.22 14.71 42.22 24.5C42.22 34.29 34.29 42.22 24.5 42.22C14.71 42.22 6.78 34.29 6.78 24.5C6.78 14.71 14.71 6.78 24.5 6.78Z" />
				<path id="Icon" class="shp2" d="M28.95 29.43C29.32 29.43 29.61 29.73 29.61 30.11C29.61 30.49 29.32 30.79 28.95 30.79C28.58 30.79 28.28 30.49 28.28 30.11C28.28 29.73 28.58 29.43 28.95 29.43ZM21.15 27.59C20.83 27.28 20.45 27.09 20.05 27.09C19.63 27.09 19.25 27.28 18.93 27.6C19.53 27.48 20.3 27.41 21.15 27.59ZM34.98 32.37C34.47 28.98 32.38 26.12 29.51 24.57C29.65 25.52 29.78 27.14 29.46 28.57C30.1 28.79 30.57 29.4 30.57 30.11C30.57 31.02 29.85 31.73 28.95 31.73C28.05 31.73 27.33 31 27.33 30.11C27.33 29.33 27.86 28.7 28.58 28.52C29.02 26.84 28.67 24.66 28.57 24.11C28.45 24.06 28.34 24.01 28.22 23.96C27.25 24.92 25.95 25.5 24.5 25.5C23.08 25.5 21.78 24.93 20.83 24.01C20.68 24.33 20.4 25.11 20.45 26.27C21.87 26.54 22.95 28.19 22.95 30.17C22.95 30.9 22.8 31.63 22.52 32.25C22.36 32.72 21.72 32.9 21.42 32.9C20.97 32.9 20.6 32.54 20.6 32.08C20.6 31.62 20.97 31.25 21.42 31.25C21.55 31.25 21.73 31.29 21.93 31.37C22.28 30.42 22.02 29.14 21.85 28.71C20.25 28.02 18.79 28.49 18.25 28.71C18.1 29.14 17.81 30.31 18.17 31.37C18.37 31.29 18.55 31.25 18.69 31.25C19.14 31.25 19.5 31.62 19.5 32.08C19.5 32.54 19.14 32.9 18.69 32.9C18.41 32.9 17.77 32.73 17.61 32.3L17.61 32.3C17.3 31.67 17.15 30.94 17.15 30.17C17.15 28.2 18.22 26.57 19.6 26.27C19.57 25.5 19.67 24.87 19.79 24.41C16.75 25.94 14.55 28.87 14.02 32.37C13.88 33.22 14.55 34 15.4 34L33.58 34C34.45 34 35.11 33.22 34.98 32.37ZM24.5 24.79C27 24.79 29.03 22.75 29.03 20.22C29.03 19.87 29 19.54 28.91 19.2C28.91 19.2 26.78 18.57 24.5 18.57C22.22 18.57 20.1 19.2 20.1 19.2C20.03 19.54 19.98 19.87 19.98 20.22C19.97 22.76 22 24.79 24.5 24.79ZM28.55 18.22C28.87 17.03 29.17 15.82 29.47 14.63C26.21 13.79 22.78 13.79 19.53 14.63C19.83 15.82 20.15 17.03 20.45 18.22C23.1 17.53 25.9 17.53 28.55 18.22ZM23.28 15.47L24.13 15.47L24.13 14.61L24.86 14.61L24.86 15.47L25.71 15.47L25.71 16.2L24.86 16.2L24.86 17.06L24.13 17.06L24.13 16.2L23.28 16.2L23.28 15.47Z" />
			</g>
		</g>
	</g>
</svg>