<svg xmlns="http://www.w3.org/2000/svg" viewBox="0 0 32 31" width="32" height="31">
	<defs>
		<clipPath clipPathUnits="userSpaceOnUse" id="cp1">
			<path d="M-655 -196L95 -196L95 1138L-655 1138Z" />
		</clipPath>
	</defs>
	<style>
		tspan { white-space:pre }
		.shp0 { fill: #000000 } 
	</style>
	<g id="Profile" clip-path="url(#cp1)">
		<g id="Profile  Details">
			<path id="Edit Icon" class="shp0" d="M15.53 9.18L12.53 12.19C11.42 13.3 10.31 14.41 9.21 15.53C8.95 15.79 8.76 16.15 8.68 16.49C8.28 18.32 7.9 20.15 7.51 21.98L7.3 23C7.19 23.49 7.33 23.98 7.66 24.32C7.92 24.58 8.28 24.73 8.66 24.73C8.77 24.73 8.88 24.71 8.98 24.69L10.1 24.46C11.87 24.09 13.64 23.71 15.41 23.34C15.82 23.25 16.17 23.07 16.47 22.77C21.44 17.79 26.41 12.81 31.38 7.84C31.74 7.47 31.95 7.04 32 6.5C32 6.41 32 6.32 31.98 6.24C31.95 6.11 31.92 5.98 31.89 5.85C31.82 5.53 31.74 5.16 31.59 4.81L31.59 4.81C30.66 2.68 29.12 1.16 27.01 0.31C26.58 0.13 26.14 0.08 25.74 0.03L25.64 0.01C25.07 -0.05 24.55 0.13 24.1 0.59C21.25 3.45 18.39 6.32 15.53 9.18ZM25.43 1.54C25.44 1.54 25.45 1.54 25.46 1.54L25.57 1.55C25.9 1.59 26.2 1.63 26.44 1.73C28.16 2.43 29.42 3.67 30.19 5.42C30.28 5.62 30.33 5.88 30.39 6.15C30.41 6.25 30.44 6.35 30.45 6.45C30.43 6.57 30.38 6.64 30.3 6.73C25.32 11.7 20.35 16.68 15.38 21.65C15.3 21.74 15.22 21.78 15.11 21.8C13.33 22.17 11.56 22.55 9.79 22.92L8.85 23.12L9.03 22.29C9.41 20.46 9.8 18.63 10.19 16.81C10.2 16.75 10.25 16.67 10.31 16.6C11.41 15.49 12.51 14.38 13.62 13.28L16.62 10.27C19.49 7.4 22.35 4.54 25.21 1.66C25.33 1.56 25.38 1.54 25.43 1.54ZM3.46 6.9L14.5 6.9C14.93 6.9 15.27 6.56 15.27 6.12C15.27 5.69 14.93 5.35 14.5 5.35L3.46 5.35C2.1 5.35 1 6.45 1 7.81L1 28.54C1 29.9 2.11 31 3.46 31L24.15 31C25.51 31 26.61 29.89 26.61 28.54L26.61 17.93C26.61 17.5 26.26 17.15 25.83 17.15C25.4 17.15 25.05 17.5 25.05 17.93L25.05 28.54C25.05 29.04 24.64 29.45 24.14 29.45L3.46 29.45C2.96 29.45 2.55 29.04 2.55 28.54L2.55 7.81C2.55 7.31 2.96 6.9 3.46 6.9Z" />
		</g>
	</g>
</svg>