<svg xmlns="http://www.w3.org/2000/svg" viewBox="0 0 48 31" width="48" height="31">
	<defs>
		<clipPath clipPathUnits="userSpaceOnUse" id="cp1">
			<path d="M-455 -174L295 -174L295 1160L-455 1160Z" />
		</clipPath>
	</defs>
	<style>
		tspan { white-space:pre }
		.shp0 { fill: #000000 } 
	</style>
	<g id="My Appointments 1" clip-path="url(#cp1)">
		<g id="Tab Menu">
			<g id="Family">
				<path id="Family Icon" class="shp0" d="M41.65 14.2C43.02 13.23 43.94 11.61 43.94 9.79C43.94 6.81 41.54 4.39 38.57 4.39C35.6 4.39 33.2 6.81 33.2 9.79C33.2 11.61 34.11 13.23 35.49 14.2C34.31 14.61 33.23 15.25 32.32 16.07C31.06 14.99 29.59 14.17 27.97 13.69C29.93 12.49 31.25 10.31 31.25 7.83C31.25 4.06 28.21 1 24.45 1C20.7 1 17.65 4.07 17.65 7.83C17.65 10.31 18.97 12.49 20.94 13.69C19.34 14.17 17.88 14.99 16.63 16.04C15.72 15.24 14.66 14.61 13.5 14.21C14.87 13.24 15.79 11.62 15.79 9.8C15.79 6.81 13.39 4.4 10.42 4.4C7.45 4.4 5.05 6.81 5.05 9.8C5.05 11.62 5.96 13.24 7.34 14.21C3.65 15.49 1 19.01 1 23.16L1 23.77C1 23.79 1.02 23.81 1.04 23.81L12.41 23.81C12.34 24.32 12.31 24.86 12.31 25.39L12.31 26.03C12.31 28.77 14.52 31 17.25 31L31.67 31C34.4 31 36.62 28.77 36.62 26.03L36.62 25.39C36.62 24.86 36.58 24.32 36.51 23.81L47.96 23.81C47.98 23.81 48 23.79 48 23.77L48 23.16C47.98 19.01 45.34 15.48 41.65 14.2ZM34.69 9.78C34.69 7.63 36.43 5.88 38.57 5.88C40.71 5.88 42.45 7.63 42.45 9.78C42.45 11.9 40.75 13.63 38.64 13.68C38.62 13.68 38.6 13.68 38.57 13.68C38.54 13.68 38.52 13.68 38.5 13.68C36.38 13.64 34.69 11.91 34.69 9.78ZM19.12 7.83C19.12 4.89 21.5 2.5 24.43 2.5C27.36 2.5 29.74 4.89 29.74 7.83C29.74 10.68 27.52 13 24.74 13.16C24.64 13.16 24.54 13.16 24.43 13.16C24.33 13.16 24.23 13.16 24.13 13.16C21.35 13 19.12 10.68 19.12 7.83ZM6.51 9.78C6.51 7.63 8.25 5.88 10.39 5.88C12.53 5.88 14.27 7.63 14.27 9.78C14.27 11.9 12.57 13.63 10.47 13.68C10.44 13.68 10.42 13.68 10.39 13.68C10.36 13.68 10.35 13.68 10.32 13.68C8.22 13.64 6.51 11.91 6.51 9.78ZM12.67 22.31L2.51 22.31C2.92 18.32 6.27 15.2 10.34 15.17C10.35 15.17 10.37 15.17 10.39 15.17C10.41 15.17 10.43 15.17 10.45 15.17C12.38 15.18 14.15 15.9 15.52 17.07C14.18 18.53 13.18 20.32 12.67 22.31ZM35.11 26.03C35.11 27.94 33.56 29.5 31.65 29.5L17.24 29.5C15.33 29.5 13.78 27.94 13.78 26.03L13.78 25.39C13.78 19.58 18.39 14.84 24.13 14.67C24.23 14.68 24.34 14.68 24.44 14.68C24.55 14.68 24.66 14.68 24.76 14.67C30.5 14.84 35.11 19.58 35.11 25.39L35.11 26.03ZM36.22 22.31C35.71 20.33 34.73 18.57 33.4 17.11C34.78 15.91 36.56 15.19 38.51 15.17C38.53 15.17 38.55 15.17 38.57 15.17C38.59 15.17 38.61 15.17 38.62 15.17C42.69 15.2 46.04 18.32 46.46 22.31L36.22 22.31Z" />
			</g>
		</g>
	</g>
</svg>