<svg xmlns="http://www.w3.org/2000/svg" viewBox="0 0 39 33" width="39" height="33">
	<defs>
		<clipPath clipPathUnits="userSpaceOnUse" id="cp1">
			<path d="M-82 -737L668 -737L668 597L-82 597Z" />
		</clipPath>
	</defs>
	<style>
		tspan { white-space:pre }
		.shp0 { fill: #707070 } 
	</style>
	<g id="Side Menu Screen" clip-path="url(#cp1)">
		<g id="Menu">
			<g id="Favourites">
				<g id="Icon">
					<path id="Favourite Icon" class="shp0" d="M35.7 3.88C33.82 1.84 31.22 0.71 28.37 0.71C24.37 0.71 21.83 3.01 20.41 4.93C20.04 5.43 19.73 5.93 19.46 6.4C19.2 5.93 18.88 5.43 18.52 4.93C17.09 3.01 14.56 0.71 10.55 0.71C7.7 0.71 5.1 1.84 3.23 3.88C1.44 5.82 0.45 8.43 0.45 11.22C0.45 14.25 1.69 17.07 4.34 20.1C6.71 22.8 10.12 25.59 14.07 28.81C15.54 30.02 17.06 31.26 18.68 32.62L18.73 32.66C18.94 32.84 19.2 32.92 19.46 32.92C19.72 32.92 19.99 32.84 20.2 32.66L20.24 32.62C21.86 31.26 23.38 30.02 24.86 28.81C28.8 25.59 32.21 22.8 34.58 20.1C37.24 17.07 38.47 14.25 38.47 11.22C38.47 8.43 37.49 5.82 35.7 3.88ZM23.41 27.19C22.14 28.22 20.84 29.29 19.46 30.44C18.09 29.29 16.78 28.22 15.51 27.19C7.79 20.87 2.68 16.7 2.68 11.22C2.68 8.95 3.47 6.85 4.9 5.29C6.34 3.72 8.35 2.85 10.55 2.85C13.61 2.85 15.58 4.65 16.7 6.17C17.7 7.53 18.22 8.89 18.4 9.42C18.55 9.86 18.98 10.16 19.46 10.16C19.94 10.16 20.37 9.86 20.52 9.42C20.7 8.89 21.22 7.53 22.23 6.17C23.34 4.65 25.32 2.85 28.37 2.85C30.57 2.85 32.58 3.72 34.03 5.29C35.46 6.85 36.24 8.95 36.24 11.22C36.24 16.7 31.14 20.87 23.41 27.19Z" />
				</g>
			</g>
		</g>
	</g>
</svg>