<svg xmlns="http://www.w3.org/2000/svg" viewBox="0 0 47 45" width="47" height="45">
	<defs>
		<clipPath clipPathUnits="userSpaceOnUse" id="cp1">
			<path d="M-270 -303L480 -303L480 1031L-270 1031Z" />
		</clipPath>
	</defs>
	<style>
		tspan { white-space:pre }
		.shp0 { fill: #959595 } 
	</style>
	<g id="Favourites" clip-path="url(#cp1)">
		<g id="Specialist">
			<g id="Icon 3">
				<path id="Icon" class="shp0" d="M36.42 21.19L27.87 21.19L25.79 14.87C25.63 14.37 25.15 13.98 24.65 14.05C24.13 14.07 23.69 14.41 23.55 14.92L20.12 27.07L16.42 10.23C16.31 9.72 15.88 9.34 15.37 9.3C14.86 9.26 14.37 9.56 14.18 10.04L9.78 21.19L1.17 21.19C0.53 21.19 0 21.73 0 22.39C0 23.04 0.53 23.58 1.17 23.58L10.57 23.58C11.05 23.58 11.49 23.28 11.66 22.83L14.95 14.5L18.83 32.16C18.94 32.7 19.4 33.08 19.94 33.1C19.95 33.1 19.96 33.1 19.97 33.1C20.5 33.1 20.96 32.75 21.1 32.23L24.76 19.27L25.91 22.76C26.07 23.25 26.52 23.58 27.02 23.58L36.42 23.58C37.07 23.58 37.6 23.04 37.6 22.39C37.6 21.73 37.07 21.19 36.42 21.19ZM42.87 5.18C40.12 2.39 36.51 1 32.9 1C29.52 1 26.17 2.27 23.5 4.71C20.82 2.27 17.48 1 14.1 1C10.49 1 6.88 2.39 4.13 5.18C0.48 8.88 -0.7 14.09 0.49 18.82L2.94 18.82C1.68 14.73 2.6 10.1 5.79 6.87C8.01 4.62 10.96 3.38 14.1 3.38C16.96 3.38 19.64 4.46 21.78 6.35L23.5 7.97L25.22 6.35C27.36 4.46 30.03 3.38 32.9 3.38C36.04 3.38 38.99 4.62 41.21 6.87C45.79 11.51 45.79 19.06 41.21 23.7L23.5 41.63L8.02 25.96L4.7 25.96L23.5 45L42.87 25.38C48.38 19.8 48.38 10.76 42.87 5.18Z" />
			</g>
		</g>
	</g>
</svg>