<svg xmlns="http://www.w3.org/2000/svg" viewBox="0 0 43 43" width="43" height="43">
	<defs>
		<clipPath clipPathUnits="userSpaceOnUse" id="cp1">
			<path d="M-80 -1088L670 -1088L670 246L-80 246Z" />
		</clipPath>
	</defs>
	<style>
		tspan { white-space:pre }
		.shp0 { fill: #707070 } 
	</style>
	<g id="Side Menu Screen" clip-path="url(#cp1)">
		<g id="Menu">
			<g id="Help">
				<g id="Icon">
					<path id="Help Icon" class="shp0" d="M21.47 0.27C9.91 0.27 0.51 9.68 0.51 21.26C0.51 32.83 9.91 42.25 21.47 42.25C33.02 42.25 42.42 32.83 42.42 21.26C42.42 9.68 33.02 0.27 21.47 0.27ZM21.47 39.49C11.43 39.49 3.26 31.31 3.26 21.26C3.26 11.2 11.43 3.02 21.47 3.02C31.51 3.02 39.68 11.2 39.68 21.26C39.68 31.31 31.51 39.49 21.47 39.49ZM21.47 9.86C17.78 9.86 14.78 12.86 14.78 16.55C14.78 17.31 15.4 17.93 16.16 17.93C16.91 17.93 17.53 17.31 17.53 16.55C17.53 14.38 19.3 12.61 21.47 12.61C23.64 12.61 25.4 14.38 25.4 16.55C25.4 18.73 23.64 20.5 21.47 20.5C20.71 20.5 20.09 21.11 20.09 21.87L20.09 26.67C20.09 27.43 20.71 28.04 21.47 28.04C22.22 28.04 22.84 27.43 22.84 26.67L22.84 23.1C25.87 22.47 28.15 19.77 28.15 16.55C28.15 12.86 25.15 9.86 21.47 9.86ZM21.47 29C20.51 29 19.74 29.77 19.74 30.72C19.74 31.68 20.51 32.45 21.47 32.45C22.42 32.45 23.19 31.68 23.19 30.72C23.19 29.77 22.42 29 21.47 29Z" />
				</g>
			</g>
		</g>
	</g>
</svg>