<svg xmlns="http://www.w3.org/2000/svg" viewBox="0 0 120 118" width="120" height="118">
	<defs>
		<clipPath clipPathUnits="userSpaceOnUse" id="cp1">
			<path d="M-596 -239L154 -239L154 1095L-596 1095Z" />
		</clipPath>
	</defs>
	<style>
		tspan { white-space:pre }
		.shp0 { fill: #ffffff } 
		.shp1 { fill: #1d1d1d } 
	</style>
	<g id="Side Menu Screen" clip-path="url(#cp1)">
		<g id="Button_Logout">
			<path id="Circle" class="shp0" d="M60.5 20C82.87 20 101 37.68 101 59.5C101 81.32 82.87 99 60.5 99C38.13 99 20 81.32 20 59.5C20 37.68 38.13 20 60.5 20Z" />
			<path id="Logout Icon" class="shp1" d="M63.88 59.33L63.88 40.35C63.88 39.05 62.81 38 61.5 38C60.18 38 59.12 39.05 59.12 40.35L59.12 59.34C59.12 62.67 63.88 63.06 63.88 59.33ZM81 61.77C81 55.35 77.77 49.39 72.36 45.8C71.27 45.08 69.79 45.37 69.06 46.44C68.32 47.52 68.61 48.98 69.71 49.7C73.79 52.41 76.23 56.92 76.23 61.77C76.23 69.78 69.62 76.3 61.5 76.3C53.38 76.3 46.77 69.78 46.77 61.77C46.77 56.94 49.2 52.43 53.26 49.72C54.35 49 54.64 47.54 53.9 46.46C53.17 45.38 51.68 45.1 50.59 45.83C45.21 49.41 42 55.37 42 61.77C42 72.37 50.75 81 61.5 81C72.25 81 81 72.37 81 61.77Z" />
		</g>
	</g>
</svg>