<svg xmlns="http://www.w3.org/2000/svg" viewBox="0 0 34 44" width="34" height="44">
	<defs>
		<clipPath clipPathUnits="userSpaceOnUse" id="cp1">
			<path d="M-531 -302L219 -302L219 1032L-531 1032Z" />
		</clipPath>
	</defs>
	<style>
		tspan { white-space:pre }
		.shp0 { fill: #959595 } 
	</style>
	<g id="Favourites" clip-path="url(#cp1)">
		<g id="Specialist">
			<g id="Icon 5">
				<path id="Icon" class="shp0" d="M34 22.77C34 19.66 31.4 17.13 28.2 17.13C25 17.13 22.4 19.66 22.4 22.77C22.4 25.39 24.25 27.6 26.74 28.23L26.74 34.58C26.74 38.21 23.71 41.16 19.98 41.16C16.25 41.16 13.22 38.21 13.22 34.58L13.22 21.84C18.46 21.14 22.52 16.76 22.52 11.47L22.52 2.42C22.52 1.64 21.87 1 21.06 1L16.41 1C15.61 1 14.95 1.64 14.95 2.42C14.95 3.2 15.61 3.84 16.41 3.84L19.6 3.84L19.6 11.47C19.6 15.67 16.08 19.1 11.76 19.1C7.44 19.1 3.92 15.67 3.92 11.47L3.92 3.84L7.11 3.84C7.91 3.84 8.57 3.2 8.57 2.42C8.57 1.64 7.91 1 7.11 1L2.46 1C1.65 1 1 1.64 1 2.42L1 11.47C1 16.76 5.06 21.14 10.3 21.84L10.3 34.58C10.3 39.78 14.64 44 19.98 44C25.32 44 29.66 39.78 29.66 34.58L29.66 28.23C32.15 27.6 34 25.39 34 22.77ZM28.2 25.57C26.61 25.57 25.32 24.32 25.32 22.77C25.32 21.23 26.61 19.97 28.2 19.97C29.79 19.97 31.08 21.23 31.08 22.77C31.08 24.32 29.79 25.57 28.2 25.57Z" />
			</g>
		</g>
	</g>
</svg>