<svg xmlns="http://www.w3.org/2000/svg" viewBox="0 0 56 62" width="56" height="62">
	<defs>
		<clipPath clipPathUnits="userSpaceOnUse" id="cp1">
			<path d="M-636 -62L114 -62L114 1272L-636 1272Z" />
		</clipPath>
	</defs>
	<style>
		tspan { white-space:pre }
		.shp0 { fill: #ffffff } 
	</style>
	<g id="Health camp" clip-path="url(#cp1)">
		<g id="Top Bar">
			<g id="Icons">
				<path id="Notification Icon" class="shp0" d="M28.5 36C30.36 36 31.87 34.48 31.87 32.61L25.12 32.61C25.12 34.48 26.63 36 28.5 36ZM38.62 25.85L38.62 17.38C38.62 12.18 35.86 7.84 31.03 6.69L31.03 5.54C31.03 4.13 29.9 3 28.5 3C27.1 3 25.97 4.13 25.97 5.54L25.97 6.69C21.13 7.84 18.37 12.18 18.37 17.38L18.37 25.85L15 29.23L15 30.92L42 30.92L42 29.23L38.62 25.85Z" />
			</g>
		</g>
	</g>
</svg>