<svg xmlns="http://www.w3.org/2000/svg" viewBox="0 0 54 54" width="54" height="54">
	<defs>
		<clipPath clipPathUnits="userSpaceOnUse" id="cp1">
			<path d="M-343 -1055L407 -1055L407 279L-343 279Z" />
		</clipPath>
	</defs>
	<style>
		tspan { white-space:pre }
		.shp0 { fill-opacity: 0.122;fill: #e61c23 } 
		.shp1 { fill: #e61c23;stroke: #ffffff;stroke-width: 2 } 
	</style>
	<g id="Favourites" clip-path="url(#cp1)">
		<g id="Doctor 1 Details">
			<g id="Map">
				<path id="Circle " class="shp0" d="M27.5 1C42.14 1 54 12.86 54 27.5C54 42.14 42.14 54 27.5 54C12.86 54 1 42.14 1 27.5C1 12.86 12.86 1 27.5 1Z" />
				<path id="Circle  " class="shp1" d="M28.03 16.12C34.59 16.12 39.91 21.46 39.91 28.03C39.91 34.61 34.59 39.94 28.03 39.94C21.47 39.94 16.16 34.61 16.16 28.03C16.16 21.46 21.47 16.12 28.03 16.12Z" />
			</g>
		</g>
	</g>
</svg>