<svg xmlns="http://www.w3.org/2000/svg" viewBox="0 0 26 36" width="26" height="36">
	<defs>
		<clipPath clipPathUnits="userSpaceOnUse" id="cp1">
			<path d="M-88 -850L662 -850L662 484L-88 484Z" />
		</clipPath>
	</defs>
	<style>
		tspan { white-space:pre }
		.shp0 { fill: #707070 } 
	</style>
	<g id="Side Menu Screen" clip-path="url(#cp1)">
		<g id="Menu">
			<g id="Profile">
				<g id="Icon">
					<path id="Profile Icon" class="shp0" d="M15.74 17.96L10.19 17.96C4.73 17.96 0.29 22.59 0.29 28.27L0.29 35.08L25.64 35.08L25.64 28.27C25.64 22.59 21.2 17.96 15.74 17.96ZM2.22 33.08L2.22 28.27C2.22 23.69 5.79 19.96 10.19 19.96L15.74 19.96C20.14 19.96 23.72 23.69 23.72 28.27L23.72 33.08L2.22 33.08ZM12.97 0.9C8.75 0.9 5.31 4.48 5.31 8.88C5.31 13.27 8.75 16.85 12.97 16.85C17.19 16.85 20.62 13.27 20.62 8.88C20.62 4.48 17.19 0.9 12.97 0.9ZM12.97 14.84C9.81 14.84 7.24 12.17 7.24 8.88C7.24 5.58 9.81 2.91 12.97 2.91C16.13 2.91 18.7 5.58 18.7 8.88C18.7 12.17 16.13 14.84 12.97 14.84Z" />
				</g>
			</g>
		</g>
	</g>
</svg>