<svg xmlns="http://www.w3.org/2000/svg" viewBox="0 0 33 35" width="33" height="35">
	<defs>
		<clipPath clipPathUnits="userSpaceOnUse" id="cp1">
			<path d="M-152 -1253L598 -1253L598 81L-152 81Z" />
		</clipPath>
	</defs>
	<style>
		tspan { white-space:pre }
		.shp0 { fill: #000000 } 
	</style>
	<g id="Doctor Detail Screen" clip-path="url(#cp1)">
		<g id="Doctor Details ">
			<g id="Additional Information">
				<g id="Share">
					<path id="Share Icon" class="shp0" d="M26.92 22.84C24.97 22.84 23.23 23.77 22.12 25.21L12.79 20C13.01 19.37 13.13 18.69 13.13 17.99C13.13 17.29 13.01 16.62 12.78 15.98L22.1 10.77C23.21 12.22 24.96 13.16 26.92 13.16C30.26 13.16 32.98 10.43 32.98 7.08C32.98 3.72 30.26 1 26.92 1C23.57 1 20.85 3.72 20.85 7.08C20.85 7.78 20.97 8.46 21.19 9.09L11.88 14.3C10.78 12.85 9.03 11.91 7.07 11.91C3.73 11.91 1 14.64 1 17.99C1 21.35 3.73 24.07 7.07 24.07C9.03 24.07 10.78 23.13 11.9 21.68L21.21 26.89C20.99 27.53 20.86 28.22 20.86 28.92C20.86 32.27 23.58 35 26.93 35C30.28 35 33 32.27 33 28.92C33 25.57 30.27 22.84 26.92 22.84ZM26.92 2.91C29.22 2.91 31.09 4.78 31.09 7.09C31.09 9.39 29.22 11.26 26.92 11.26C24.63 11.26 22.76 9.39 22.76 7.09C22.76 4.78 24.63 2.91 26.92 2.91ZM7.07 22.16C4.78 22.16 2.91 20.29 2.91 17.99C2.91 15.69 4.78 13.82 7.07 13.82C9.37 13.82 11.24 15.69 11.24 17.99C11.24 20.29 9.37 22.16 7.07 22.16ZM26.92 33.09C24.63 33.09 22.76 31.22 22.76 28.91C22.76 26.61 24.63 24.74 26.92 24.74C29.22 24.74 31.09 26.61 31.09 28.91C31.09 31.22 29.22 33.09 26.92 33.09Z" />
				</g>
			</g>
		</g>
	</g>
</svg>