<svg xmlns="http://www.w3.org/2000/svg" viewBox="0 0 37 37" width="37" height="37">
	<defs>
		<clipPath clipPathUnits="userSpaceOnUse" id="cp1">
			<path d="M-83 -615L667 -615L667 719L-83 719Z" />
		</clipPath>
	</defs>
	<style>
		tspan { white-space:pre }
		.shp0 { fill: #707070 } 
	</style>
	<g id="Side Menu Screen" clip-path="url(#cp1)">
		<g id="Menu">
			<g id="Notification">
				<g id="Icon">
					<path id="Notification Icon" class="shp0" d="M35.83 26.46C31.56 22.19 30.92 20.05 30.92 13.23C30.92 6.22 25.24 0.53 18.23 0.53C11.21 0.53 5.53 6.22 5.53 13.23C5.53 16.91 5.43 18.28 4.93 19.96C4.3 22.06 3 24.07 0.62 26.46C-0.52 27.6 0.29 29.56 1.9 29.56L11.97 29.56L11.88 30.46C11.88 33.97 14.72 36.81 18.22 36.81C21.73 36.81 24.57 33.97 24.57 30.46L24.48 29.56L34.55 29.56C36.16 29.56 36.97 27.6 35.83 26.46ZM18.23 35C15.72 35 13.69 32.97 13.69 30.46L13.78 29.56L22.67 29.56L22.76 30.46C22.76 32.97 20.73 35 18.23 35ZM1.9 27.74C7.34 22.3 7.34 18.67 7.34 13.23C7.34 7.22 12.22 2.34 18.23 2.34C24.24 2.34 29.11 7.22 29.11 13.23C29.11 18.67 29.11 22.3 34.55 27.74L1.9 27.74Z" />
				</g>
			</g>
		</g>
	</g>
</svg>