<svg xmlns="http://www.w3.org/2000/svg" viewBox="0 0 25 25" width="25" height="25">
	<defs>
		<clipPath clipPathUnits="userSpaceOnUse" id="cp1">
			<path d="M-415 -772L335 -772L335 562L-415 562Z" />
		</clipPath>
	</defs>
	<style>
		tspan { white-space:pre }
		.shp0 { fill: #ff7c7c } 
	</style>
	<g id="Healthcamp details" clip-path="url(#cp1)">
		<g id="Time">
			<g id="Clock Icon">
				<path id="Icon" class="shp0" d="M23.7 7.72C22.42 4.73 20.24 2.56 17.22 1.27C15.71 0.63 14.13 0.3 12.48 0.3C10.83 0.3 9.26 0.62 7.75 1.27C4.76 2.55 2.57 4.72 1.28 7.72C0.64 9.22 0.33 10.79 0.33 12.44C0.33 14.08 0.64 15.67 1.28 17.17C2.57 20.16 4.76 22.35 7.75 23.63C9.26 24.27 10.83 24.6 12.48 24.6C14.13 24.6 15.71 24.27 17.22 23.63C20.24 22.34 22.41 20.16 23.7 17.17C24.35 15.66 24.67 14.08 24.67 12.44C24.67 10.79 24.35 9.22 23.7 7.72ZM21.76 17.81C20.8 19.44 19.49 20.74 17.84 21.7C16.2 22.66 14.41 23.14 12.48 23.14C11.03 23.14 9.64 22.86 8.33 22.29C7.01 21.72 5.87 20.96 4.92 20.01C3.97 19.06 3.21 17.92 2.64 16.6C2.08 15.28 1.8 13.89 1.8 12.44C1.8 10.51 2.28 8.72 3.23 7.09C4.18 5.45 5.49 4.15 7.13 3.2C8.76 2.24 10.55 1.76 12.48 1.76C14.41 1.76 16.2 2.24 17.84 3.2C19.49 4.16 20.8 5.46 21.76 7.09C22.71 8.73 23.19 10.51 23.19 12.44C23.19 14.36 22.72 16.16 21.76 17.81ZM13.25 12.33L13.25 5.44C13.25 5.03 12.89 4.7 12.48 4.7C12.09 4.7 11.75 5.03 11.75 5.44L11.75 12.44C11.75 12.45 11.77 12.5 11.77 12.54C11.75 12.78 11.81 12.98 11.97 13.14L15.95 17.12C16.22 17.38 16.71 17.38 16.98 17.12C17.28 16.81 17.26 16.37 16.98 16.08L13.25 12.33Z" />
			</g>
		</g>
	</g>
</svg>