<svg xmlns="http://www.w3.org/2000/svg" viewBox="0 0 39 43" width="39" height="43">
	<defs>
		<clipPath clipPathUnits="userSpaceOnUse" id="cp1">
			<path d="M-17 -301L733 -301L733 1033L-17 1033Z" />
		</clipPath>
	</defs>
	<style>
		tspan { white-space:pre }
		.shp0 { fill: #959595 } 
	</style>
	<g id="Favourites" clip-path="url(#cp1)">
		<g id="Specialist">
			<g id="Icon 1">
				<path id="Icon" class="shp0" d="M38.31 7.86C37.17 4.29 34.75 1.67 31.66 0.68C25.97 -1.16 21.29 1.2 19.5 2.34C17.71 1.2 13.03 -1.16 7.34 0.68C4.25 1.68 1.83 4.29 0.69 7.86C-0.8 12.56 0.16 17.87 3.27 22.09C4.62 23.92 5.54 25.94 5.99 28.09C6.19 29.04 6.36 30.1 6.51 31.21C6.94 34.57 7.57 37.27 8.39 39.22C9.37 41.57 10.63 42.83 12.14 42.99C12.23 43 12.31 43 12.4 43C13.89 43 15.13 41.65 16.1 38.99C16.82 37.02 17.38 34.38 17.69 31.56C17.86 29.99 18.27 28.71 18.86 27.87C19.07 27.57 19.38 27.54 19.5 27.54C19.62 27.54 19.93 27.57 20.14 27.87C20.73 28.71 21.14 29.99 21.31 31.56C21.62 34.38 22.18 37.02 22.9 38.99C23.87 41.65 25.11 43 26.6 43C26.69 43 26.77 43 26.86 42.99C28.37 42.83 29.63 41.57 30.61 39.22C31.43 37.27 32.06 34.57 32.49 31.21C32.64 30.1 32.81 29.04 33.01 28.09C33.46 25.94 34.38 23.92 35.73 22.08C38.84 17.87 39.8 12.55 38.31 7.86ZM33.73 20.58C32.16 22.71 31.1 25.06 30.57 27.57C30.36 28.59 30.17 29.71 30.02 30.89C29.15 37.73 27.52 40.37 26.62 40.48C26.44 40.42 25.79 39.8 25.1 37.74C24.52 36 24.05 33.7 23.79 31.29C23.57 29.26 23.02 27.62 22.17 26.41C21.56 25.54 20.56 25.02 19.5 25.02C18.44 25.02 17.44 25.54 16.83 26.41C15.98 27.62 15.43 29.26 15.21 31.29C14.95 33.7 14.48 36 13.89 37.74C13.2 39.8 12.56 40.42 12.38 40.48C11.48 40.37 9.85 37.73 8.98 30.89C8.83 29.71 8.64 28.59 8.43 27.57C7.9 25.06 6.84 22.71 5.27 20.59C2.64 17.02 1.82 12.55 3.06 8.63C3.95 5.84 5.79 3.82 8.1 3.07C10.54 2.28 13.06 2.33 15.58 3.22C17.51 3.9 18.72 4.84 18.73 4.85L19.5 5.45L20.27 4.85C20.28 4.84 21.49 3.9 23.42 3.22C25.94 2.33 28.46 2.28 30.9 3.07L30.9 3.07C33.21 3.82 35.05 5.84 35.93 8.63C37.18 12.55 36.36 17.02 33.73 20.58Z" />
			</g>
		</g>
	</g>
</svg>