<svg xmlns="http://www.w3.org/2000/svg" viewBox="0 0 165 165" width="165" height="165">
	<defs>
		<clipPath clipPathUnits="userSpaceOnUse" id="cp1">
			<path d="M-492 -187L258 -187L258 1147L-492 1147Z" />
		</clipPath>
	</defs>
	<style>
		tspan { white-space:pre }
		.shp0 { fill: #e3e1e1 } 
		.shp1 { fill: #686868 } 
	</style>
	<g id="Edit Profile 1" clip-path="url(#cp1)">
		<g id="Upload  Image Icon">
			<path id="Rectangle " class="shp0" d="M83 1C128.29 1 165 37.71 165 83C165 128.29 128.29 165 83 165C37.71 165 1 128.29 1 83C1 37.71 37.71 1 83 1Z" />
			<path id="Camera Icon" class="shp1" d="M115.5 64.9C113.64 63.05 111.39 62.12 108.77 62.12L100.44 62.12L98.55 57.09C98.08 55.89 97.22 54.85 95.96 53.97C94.71 53.09 93.43 52.66 92.11 52.66L73.08 52.66C71.77 52.66 70.49 53.09 69.23 53.97C67.98 54.85 67.12 55.89 66.65 57.09L64.76 62.12L56.43 62.12C53.8 62.12 51.56 63.05 49.7 64.9C47.84 66.74 46.91 68.97 46.91 71.59L46.91 104.72C46.91 107.33 47.84 109.56 49.7 111.41C51.56 113.26 53.8 114.18 56.43 114.18L108.77 114.18C111.39 114.18 113.64 113.26 115.5 111.41C117.35 109.56 118.28 107.33 118.28 104.72L118.28 71.59C118.28 68.97 117.35 66.74 115.5 64.9ZM94.36 99.86C91.1 103.1 87.18 104.72 82.6 104.72C78.01 104.72 74.09 103.1 70.83 99.86C67.57 96.61 65.95 92.71 65.95 88.15C65.95 83.59 67.57 79.69 70.83 76.45C74.09 73.21 78.01 71.59 82.6 71.59C87.18 71.59 91.1 73.21 94.36 76.45C97.62 79.69 99.25 83.59 99.25 88.15C99.25 92.71 97.62 96.61 94.36 99.86ZM82.6 77.5C79.65 77.5 77.13 78.55 75.03 80.63C72.94 82.71 71.89 85.22 71.89 88.15C71.89 91.09 72.94 93.59 75.03 95.68C77.13 97.76 79.65 98.8 82.6 98.8C85.55 98.8 88.07 97.76 90.16 95.68C92.26 93.59 93.3 91.09 93.3 88.15C93.3 85.22 92.26 82.71 90.16 80.63C88.07 78.55 85.55 77.5 82.6 77.5Z" />
		</g>
	</g>
</svg>